<?xml version="1.0" encoding="UTF-8" standalone="no"?>
<!DOCTYPE svg PUBLIC "-//W3C//DTD SVG 1.1//EN" "http://www.w3.org/Graphics/SVG/1.1/DTD/svg11.dtd">
<svg version="1.1" xmlns="http://www.w3.org/2000/svg" xmlns:xlink="http://www.w3.org/1999/xlink" preserveAspectRatio="xMidYMid meet" viewBox="0 0 640 640" width="640" height="640"><defs><path d="M1.57 207.9L136.57 207.9L136.57 336.9L1.57 336.9L1.57 207.9Z" id="d4Cxmy7JW"></path><path d="M7.1 331.14L20.93 331.14L20.93 294.62L7.1 294.62L7.1 331.14Z" id="c2b0GSBNfz"></path><path d="M24.63 331.14L38.46 331.14L38.46 265.51L24.63 265.51L24.63 331.14Z" id="i46xHBH9Q"></path><path d="M43.4 331.14L57.22 331.14L57.22 237.11L43.4 237.11L43.4 331.14Z" id="aBo0uUd4p"></path><path d="M62.16 331.14L75.99 331.14L75.99 213.66L62.16 213.66L62.16 331.14Z" id="ayPcN1dxD"></path><path d="M80.93 331.14L94.75 331.14L94.75 237.11L80.93 237.11L80.93 331.14Z" id="aIjkE3Hv"></path><path d="M98.46 331.14L112.28 331.14L112.28 265.51L98.46 265.51L98.46 331.14Z" id="jY5r8niNf"></path><path d="M115.99 331.14L129.81 331.14L129.81 294.62L115.99 294.62L115.99 331.14Z" id="a1qfD3oSwM"></path></defs><g><g><g><use xlink:href="#d4Cxmy7JW" opacity="1" fill="#000000" fill-opacity="1"></use></g><g><use xlink:href="#c2b0GSBNfz" opacity="1" fill="#ffffff" fill-opacity="1"></use></g><g><use xlink:href="#i46xHBH9Q" opacity="1" fill="#ffffff" fill-opacity="1"></use></g><g><use xlink:href="#aBo0uUd4p" opacity="1" fill="#ffffff" fill-opacity="1"></use></g><g><use xlink:href="#ayPcN1dxD" opacity="1" fill="#ffffff" fill-opacity="1"></use></g><g><use xlink:href="#aIjkE3Hv" opacity="1" fill="#ffffff" fill-opacity="1"></use></g><g><use xlink:href="#jY5r8niNf" opacity="1" fill="#ffffff" fill-opacity="1"></use></g><g><use xlink:href="#a1qfD3oSwM" opacity="1" fill="#ffffff" fill-opacity="1"></use></g></g></g></svg>